<?xml version="1.0" encoding="utf-8"?>
<!-- Generator: Adobe Illustrator 23.0.2, SVG Export Plug-In . SVG Version: 6.00 Build 0)  -->
<svg version="1.1" id="レイヤー_1" xmlns="http://www.w3.org/2000/svg" xmlns:xlink="http://www.w3.org/1999/xlink" x="0px"
	 y="0px" viewBox="0 0 800 1000" style="enable-background:new 0 0 800 1000;" xml:space="preserve">
<style type="text/css">
	.st0{fill:#F6554D;}
</style>
<path class="st0" d="M690.72,218.82C679.89,200.55,570.96,73.39,511.08,50.58c-77.25-29.43-334.44-31.33-397.78,8.55
	c-76.99,48.48-69.4,56.04-110.17,100.25v740.77c3.75,3.72,7.59,7.26,11.53,10.58c82.79,69.87,227.51,60.8,252.76,59.22
	c45.7-2.86,117.05-7.33,133.98-46.83c21.14-49.31-66.8-96.64-54.18-172.3c10.32-61.82,59.98-99.81,147.73-92.47
	c42.43,3.55,113.67-7.87,153.68-31.09C752.4,567.04,776.05,362.7,690.72,218.82z"/>
</svg>
