<?xml version="1.0" encoding="utf-8"?>
<!-- Generator: Adobe Illustrator 23.0.2, SVG Export Plug-In . SVG Version: 6.00 Build 0)  -->
<svg version="1.1" id="レイヤー_1" xmlns="http://www.w3.org/2000/svg" xmlns:xlink="http://www.w3.org/1999/xlink" x="0px"
	 y="0px" viewBox="0 0 144.15 387.05" style="enable-background:new 0 0 144.15 387.05;" xml:space="preserve">
<style type="text/css">
	.st0{fill:none;}
	.st1{fill:#F6554D;}
</style>
<path class="st0" d="M0,359.13v1.92h2.05c-0.18-0.17-0.37-0.33-0.55-0.5C0.99,360.09,0.5,359.61,0,359.13z"/>
<path class="st1" d="M117,47.05C91.49,12.88,45.09-2.24,0,9.05v372.59c2.32,0.59,4.66,1.07,7,1.41c43.93,6.35,98.81-31.58,102-68
	c3.24-37.01-48.4-55.6-42-92c5.09-28.95,39.47-26.97,59-65C141.66,127.57,142.63,81.39,117,47.05z"/>
<path class="st1" d="M-4.76,7.8C-5,7.72-5.21,7.65-5.32,7.61C-5.15,7.67-4.96,7.73-4.76,7.8z"/>
<path class="st1" d="M-1,9.05c-0.13-0.04-0.24-0.08-0.37-0.12C-1.15,9-1,9.05-1,9.05z"/>
<path class="st1" d="M-1.75,8.8c-0.55-0.18-1.24-0.41-1.5-0.5C-2.79,8.46-2.29,8.62-1.75,8.8z"/>
<path class="st1" d="M-5.41,7.58c-0.16-0.05-0.3-0.1-0.44-0.15C-5.7,7.49-5.56,7.53-5.41,7.58z"/>
<path class="st1" d="M-6.7,7.15c-0.12-0.04-0.21-0.07-0.26-0.09C-6.93,7.08-6.85,7.1-6.7,7.15z"/>
<path class="st1" d="M-4.39,7.92c0.34,0.11,0.72,0.24,1.14,0.38c-0.06-0.02-0.1-0.03-0.1-0.03C-3.36,8.27-3.87,8.1-4.39,7.92z"/>
<path class="st1" d="M-5.85,7.44C-6.18,7.33-6.49,7.22-6.7,7.15C-6.52,7.21-6.23,7.31-5.85,7.44z"/>
</svg>
